<?xml version="1.0" encoding="UTF-8"?>
<!-- Created with Inkscape (http://www.inkscape.org/) -->
<svg width="512" height="512" version="1.1" viewBox="0 0 135.47 135.47" xml:space="preserve" xmlns="http://www.w3.org/2000/svg" xmlns:xlink="http://www.w3.org/1999/xlink"><defs><linearGradient id="linearGradient38"><stop stop-color="#0095d4" offset="0"/><stop stop-color="#8a46d7" offset="1"/></linearGradient><linearGradient id="linearGradient8" x1="315.15" x2="315.15" y1="10.662" y2="93.037" gradientUnits="userSpaceOnUse"><stop stop-color="#0077ab" offset="0"/><stop stop-color="#bb90f0" offset="1"/></linearGradient><linearGradient id="linearGradient10" x1="219.94" x2="307.21" y1="91.028" y2="50.845" gradientUnits="userSpaceOnUse"><stop stop-color="#028371" offset="0"/><stop stop-color="#00bd9d" offset="1"/></linearGradient><linearGradient id="linearGradient12" x1="315.15" x2="315.15" y1="107.6" y2="94.042" gradientUnits="userSpaceOnUse"><stop stop-color="#0077ab" offset="0"/><stop stop-color="#00bd9d" offset="1"/></linearGradient><linearGradient id="linearGradient37" x1="223.9" x2="223.9" y1="38.79" y2="163.36" gradientUnits="userSpaceOnUse"><stop stop-color="#065374" offset="0"/><stop stop-color="#2ccfff" offset="1"/></linearGradient><linearGradient id="linearGradient39" x1="67.733" x2="67.733" y1="8.4667" y2="127" gradientUnits="userSpaceOnUse" xlink:href="#linearGradient38"/><filter id="filter83" x="0" y="-.0042182" width="1" height="1.0084" color-interpolation-filters="sRGB"><feFlood flood-color="rgb(0,187,249)" flood-opacity=".50196" in="SourceGraphic" result="flood"/><feGaussianBlur in="SourceGraphic" result="blur" stdDeviation="0.000000"/><feOffset dx="0.000000" dy="0.500000" in="blur" result="offset"/><feComposite in="flood" in2="offset" operator="out" result="comp1"/><feComposite in="comp1" in2="SourceGraphic" operator="atop" result="fbSourceGraphic"/><feColorMatrix in="fbSourceGraphic" result="fbSourceGraphicAlpha" values="0 0 0 -1 0 0 0 0 -1 0 0 0 0 -1 0 0 0 0 1 0"/><feFlood flood-color="rgb(117,52,188)" flood-opacity=".50196" in="fbSourceGraphic" result="flood"/><feGaussianBlur in="fbSourceGraphic" result="blur" stdDeviation="0.000000"/><feOffset dx="0.000000" dy="-0.500000" in="blur" result="offset"/><feComposite in="flood" in2="offset" operator="out" result="comp1"/><feComposite in="comp1" in2="fbSourceGraphic" operator="atop" result="comp2"/></filter><linearGradient id="linearGradient103" x1="227.87" x2="307.21" y1="115.14" y2="135.23" gradientUnits="userSpaceOnUse"><stop stop-color="#642f9a" offset="0"/><stop stop-color="#9b5de5" offset=".7"/><stop stop-color="#0095d4" offset="1"/></linearGradient><linearGradient id="linearGradient73" x1="256.63" x2="256.63" y1="81.485" y2="103.59" gradientUnits="userSpaceOnUse"><stop stop-color="#00bd9d" offset="0"/><stop stop-color="#00bd9d" stop-opacity="0" offset="1"/></linearGradient><linearGradient id="linearGradient15" x1="263.57" x2="263.57" y1="-25.502" y2="199.52" gradientUnits="userSpaceOnUse" xlink:href="#linearGradient38"/></defs><g><ellipse cx="67.733" cy="67.733" rx="59.267" ry="59.267" fill="url(#linearGradient39)" filter="url(#filter83)"/><ellipse cx="67.733" cy="67.733" rx="55.033" ry="55.033" fill="#112a5c"/><path transform="matrix(.53355 0 0 .52676 -72.896 21.9)" d="m333 30.162a1.4972 1.4972 0 0 0-0.27148 2.0996c14.333 18.582 20.793 42.175 17.955 65.586a1.4972 1.4972 0 0 0 1.3066 1.666 1.4972 1.4972 0 0 0 1.666-1.3047c2.9322-24.189-3.7404-48.569-18.557-67.777a1.4972 1.4972 0 0 0-2.0996-0.26953z" fill="url(#linearGradient15)" stop-color="#000000" style="-inkscape-stroke:none;font-variation-settings:normal"/><path transform="matrix(-.53355 0 0 .52676 -72.896 21.9)" d="m-194.15 30.162a1.4972 1.4972 0 0 0-0.27148 2.0996c14.333 18.582 20.795 42.175 17.957 65.586a1.4972 1.4972 0 0 0 1.3066 1.666 1.4972 1.4972 0 0 0 1.666-1.3047c2.9322-24.189-3.7423-48.569-18.559-67.777a1.4972 1.4972 0 0 0-2.0996-0.26953z" fill="url(#linearGradient15)" stop-color="#000000" style="-inkscape-stroke:none;font-variation-settings:normal"/></g><g transform="matrix(.53355 0 0 .52676 -72.896 21.9)"><g stroke-width=".12919"><path d="m263.3 10.898c-14.059 0.093535-27.806 4.1528-39.661 11.711-3.157 1.976-6.9608 4.6487-9.6477 7.2517 2.6212-1.4006 4.962-2.6716 7.7629-3.7799 10.326-4.1571 21.656-4.3892 32.278-1.1556 6.5111 1.9823 13.38 5.8064 17.069 11.742 1.2338 1.9857 1.3508 5.1078-1.0935 6.257-0.17312 0.080874-0.34797 0.15894-0.52496 0.23348 2.058 3.8008 2.5538 6.954 1.6959 11.142-0.15632 0.46716-0.38378 1.2245-0.59953 1.6393-1.0852 1.5344-2.3047 2.954-4.2568 3.2236-3.3318 0.46044-4.8315-1.7312-5.511-4.5206-3.3361 1.9145-6.2976-0.027644-7.2534-3.4905-5.3168 0.5802-9.4472 2.9845-11.957 7.7883-3.7323 7.1448-3.0296 15.379 0.37773 22.482 2.7507-1.7295 4.9548-4.297 7.4636-6.3413 1.6272-1.326 4.6408-1.9344 6.0641-3.0019 4.4438-3.3331 7.2902-5.7638 12.963-6.8475 3.0347-0.57994 5.5763-1.2665 7.0413-4.3754 0.37465-0.61456 0.55454-1.0592 0.83876-1.7138 0.93405-2.796 1.021-5.509 2.2044-7.9463 2.2337-4.6027 5.6302-6.4635 10.475-7.2144 0.22738-0.035269 1.9342-1.1288 2.6189-1.3744 0.48963-0.12751 0.95834-0.19335 1.4557-0.27371 1.8926 0.38357 3.3667 1.7019 4.8679 2.0386 6.382 1.4314 13.264-0.9784 15.095 7.5961 0.10852 1.117 0.19144 2.1086 0.23924 3.2286-0.1279 0.0509-0.29856 0.11905-0.51043 0.20405-0.79452 0.83134-1.261 4.0306-2.8475 3.3826-0.2713-0.11059-0.71018-0.55807-0.94918-0.80444-0.62787 0.88289-0.94655 1.3433-1.8431 2.0091-0.52451-0.3638-0.88247-0.59837-1.3579-1.034-1.434 1.3907-1.5717 1.5284-3.1129 0.22564-0.37465 0.2983-1.1586 0.83351-1.3085 1.2292 0.43796 1.0786 1.151-0.25431 1.8112 0.83387 0.46897 0.77463 0.49906 1.3028 1.4499 0.80542 0.0956-0.049868 0.18948-0.10085 0.28378-0.15304 0.72347 0.16278 0.91876 0.94747 1.1177 1.6128 0.3359-0.35218 0.78461-0.9232 1.353-0.9202 1.3397 0.007235 2.1098 2.9524 2.1356 3.9516 0.01679 0.67644-1.0329 2.2123-1.4722 2.8332-0.51547 0.48033-0.79591 0.74854-1.3889 1.1537-2.7944 1.1544-5.6156-0.038661-8.1736-1.0399-0.67309-0.37879-1.429-0.63319-2.1705-0.82995-3.3138-0.91196-6.6085 2.1528-7.2234 5.2396l-0.34674 1.6776c-0.1744 0.65428-0.35974 1.2124-0.56369 1.7629-0.20396 0.55054-0.42639 1.0941-0.67508 1.7197h-9.7e-4c2.3396 2.7938 7.4167-0.39276 8.1184 7.4558l-0.42035 0.98102c-0.33589 0.4793-0.68333 0.99633-1.0296 1.4627-0.16795-0.67825-0.25392-1.2843-0.65183-1.8463-0.17699-0.094353-0.27792-0.20476-0.40582-0.10399-1.4172 1.1149-0.82353 1.2793-2.587 2.1229 0.7351-5.386-1.0412-3.6716-5.0887-4.2684 0.80872 1.4986 1.7286 4.2655 0.06199 5.4967l-0.23439-0.013734c-0.38757-0.68988-0.65655-1.4422-0.95111-2.1798-0.66275 1.4237-1.0371 2.3011-2.3613 3.2648-0.27001-1.1446-0.52808-2.2933-0.77484-3.4444-0.77773 0.83328-1.5555 1.802-2.3332 2.5811 0.29327 0.7674 0.41825 1.0982 0.82908 1.8178 6.4195 0.0375 13.304 0.17448 19.699 0.032374 0.06072-1.111 0.16002-2.666 0.42616-3.7563l0.36708-1.3283c0.36043-1.1756 0.9777-2.3606 1.5138-3.4767l0.85135-1.3685c0.62787-0.94568 1.459-1.7296 2.2664-2.5202l1.5206-1.2047c1.0154-0.73096 1.9044-1.1599 3.0335-1.6815 0.4638-0.1828 1.0526-0.3686 1.5332-0.53564 3.098-0.78414 5.3742-0.76764 8.4632-0.00981l1.571 0.55918c1.1834 0.52968 1.9447 0.8772 3.048 1.5402l1.3928 1.1076c0.94956 0.98418 1.4263 1.5271 2.2635 2.5722l0.9947 1.5324c0.50125 0.98184 1.1977 2.3074 1.4548 3.359 0.1434 0.52193 0.2818 1.0441 0.41745 1.5687 0.21312 1.4288 0.23439 2.1962 0.20339 3.6367l7.7396-0.011772c0.41858-3.3938 0.29111-11.353-0.30703-14.706-0.06976-0.60034-0.16749-1.225-0.25279-1.8257-0.49738-3.3286-1.1513-6.1501-1.8993-9.4276l-0.63827-1.9797c-1.1911-4.3747-2.9112-8.5876-5.1217-12.546-0.39274-0.7599-0.8302-1.5317-1.2436-2.2838-2.381-4.8635-9.0126-13.585-13.04-16.983-0.55423-0.69505-0.77619-0.89774-1.4286-1.4823-3.7026-3.6694-7.5593-6.4793-12.022-9.1892-11.773-7.2791-25.349-11.116-39.19-11.076z" display="block" fill="url(#linearGradient8)"/><path d="m263.02 18.305c0.70668-0.33952 1.5555-0.04431 1.8991 0.66055 0.34236 0.705 0.0517 1.5549-0.65112 1.9021-0.70797 0.34972-1.5658 0.05646-1.912-0.65384-0.34623-0.71042-0.0478-1.5666 0.66404-1.9088z" display="block" fill="#fff" fill-opacity=".5"/><path d="m275.09 43.891c0.66921-0.32014 1.4728-0.05206 1.8164 0.60629 0.34365 0.65849 0.10335 1.4706-0.5426 1.8366-0.43925 0.24843-0.97798 0.23771-1.4056-0.02778-0.42892-0.26549-0.67826-0.74349-0.64983-1.2466 0.0271-0.5032 0.32685-0.95123 0.7816-1.1685z" display="block" fill="#fff" fill-opacity=".5"/></g><g><path d="m292.89 44.037c-1.9851-0.07792-3.78 2.6764-4.8447 2.4859 9e-3 -0.45889 0.0905-0.30715-0.10073-0.62393-1.4366-0.01977-3.146 0.96489-4.3449 1.7266-5.8653 3.6949-3.7422 10.974-7.7406 15.826-2.9908 3.6288-8.9568 3.1129-12.955 5.4153-2.443 1.4062-4.3874 3.4163-6.6432 4.7364-2.5568 1.4963-5.6025 1.9387-7.7067 4.4058-4.2636 4.1695-8.6003 7.6524-14.726 8.3681-6.37 0.74414-11.469-2.2689-12.022-8.993-0.33887-4.1301 2.0048-6.8914 4.5192-9.8446-2.1668 1.2911-4.1899 2.6711-5.7415 4.6962-2.27 3.0143-3.2454 6.8095-2.71 10.545 0.59841 4.2517 2.8475 8.4513 6.343 10.947 7.2669 5.1883 14.838 4.4472 22.969 3.6798-0.90537-2.3784-1.5801-5.0051-1.5342-7.5657 0.13565-1.9792 0.16622-3.3614 1.5836-4.86-0.65215 4.9261 0.57615 11.236 3.0102 15.571-3.6062 1.4805-3.4939 3.2829-5.1827 6.2001-0.30463 0.5258-1.609 1.6551-2.1618 2.4741-0.0971 2.2066 0.03488 4.3771-0.06102 6.6121-0.0944 2.2027-0.68342 4.4819-0.59082 6.6768 0.0238 0.56069 0.72888 1.7189 1.0305 2.2564 2.018-2.6575 1.5149-3.4273 1.6717-6.7269 0.68743 1.6239 0.82214 3.0163 1.3753 4.5343 1.2366 0.80615 2.3685 1.4755 3.3977 2.5516 0.42013-3.6561-0.9694-3.069-2.2228-5.8273 2.0663 1.049 2.6758 1.2462 4.034 3.1854 0.94194 0.29327 1.8808 0.60012 2.8146 0.91922-0.44352-2.5735-0.97504-2.7738-3.4538-3.4365-2.2738-0.6072-2.7326-3.5697-3.2408-5.4908-0.17273-0.61883-0.26798-2.1586-0.55789-2.5566l-0.38063-0.09712c0.90408-0.54906 0.94049-0.81252 1.664-1.4598 2.4589-2.1975 5.9234-3.5992 8.4903-5.5732 2.1252-1.6343 3.6018-6.8678 4.1444-9.3315 0.78031-3.5502 0.97111-7.7428 0.22567-11.299 1.8638 2.3262 2.1877 3.4361 2.1918 6.3659-1.6e-4 7.3e-4 1.6e-4 0.001234 0 0.001962-0.21575 3.3448-0.7745 5.4679-1.6427 8.6409 0.85395-0.14469 2.094-0.34134 2.8989-0.6514 5.7038-2.2014 11.354-6.7313 15.042-11.511-1.3178-0.24417-2.6317-0.22464-3.9623-0.30216-2.089-0.12273-2.9358-0.33476-3.3144-2.4496-0.26097-1.6459-1.537-5.6905-0.87944-6.7436 0.33977-0.17002 0.16935-0.15589 0.52592-0.049051 1.2842 1.3042 1.2103 4.9969 2.2412 7.4283 1.9999 0.41341 4.1484 0.16822 6.1677 0.59842 1.3216 0.28164 1.395 1.5234 2.1521 2.7223l0.07749 0.11968c0.99994-2.35 0.53931-0.902 1.755-1.3568 0.0646-2.7957-6.5081-3.8809-8.5455-4.5088 0.81907-2.5789 1.4683-4.8283 0.67895-7.496 2.2182 2.1437 1.7054 3.7589 1.4393 6.5562 1.9146 0.52322 3.1878 0.79312 4.9512 1.7207 1.3165-1.841 2.8114-4.185 3.4974-6.3443 1.2364-3.8912 1.238-6.2717 4.7972-8.9685-2.4004-0.35192-3.0728-0.61335-4.9745-2.328-1.3823-1.2459-3.0812-7.1584-1.6756-8.3132l0.27022 0.11576c0.32556 0.53434 0.66047 2.783 0.85426 3.518 0.86816 3.293 2.7299 5.3337 6.2723 5.5781 1.4288 0.16911 2.8208 0.1985 4.2354 0.50326 3.0412 0.65487 6.0256 3.1812 9.2709 2.1622 1.1382-0.35734 1.7109-1.2868 2.2548-2.2564-3.2272-0.11188-6.81-1.0986-8.9571-3.5003-2.642-2.9547-5.5553-1.9865-7.8782-3.5778-2.3254-1.5923-1.6784-3.9021-5.0994-5.5546l0.36127-0.064747c3.2207-0.58382 3.5292 1.232 6.5406 1.4264 1.2338 0.07971 3.1331-1.1861 4.3914-1.1919 2.0192-0.07868 4.2592 1.3382 6.2655 1.2282 2.93-0.16071 5.3565-1.3326 8.3808-1.7089-0.31393-1.6186-0.36412-3.2297-1.3201-4.6618-1.6368-2.454-4.4656-2.4189-7.0636-2.6233-1.695-0.13332-4.0511-0.24869-5.666-0.64944-1.5813-0.39248-2.7674-1.534-4.4882-1.9464-0.13387-0.03208-0.2667-0.049737-0.39904-0.054937zm0.04552 2.224c1.2892-0.03647 2.3023 1.5302 3.8655 2.0709 1.3978 0.4833 1.4516 0.42973 2.9579 0.56899-1.1911 0.42633-2.1148 0.54554-3.3628 0.68868-0.25451 0.32866-0.5358 0.59299-0.82907 0.88586-2.3035 1.336-3.8038 0.2572-3.7754-2.3025-0.73381 0.21304-1.4864 0.39488-2.2267 0.58273 1.2054-1.3176 1.5716-1.8528 3.2446-2.4869 0.0422-0.0046 0.0843-0.006749 0.12591-0.007849zm14.311 2.8204c1.1136 0.22492 1.7176 1.4094 1.693 2.4702-0.89271-0.95769-2.5612-0.68854-1.693-2.4702zm-42.662 39.885c-0.37093 0.23871-0.70928 0.47285-0.96177 0.6926 0.25235-0.21964 0.59114-0.45404 0.96177-0.6926z" display="block" fill="url(#linearGradient10)" stroke-width=".12919"/><path d="m291.79 48.173c-0.73381 0.21304-1.4864 0.39488-2.2267 0.58273 1.2814 4.601 5.2486 4.601 6.8312 0.83387-0.25451 0.32866-0.5358 0.59299-0.82907 0.88586-2.3035 1.336-3.8038 0.2572-3.7754-2.3025z" fill="#028371" style="font-variation-settings:normal"/><g stroke-width=".12919"><path d="m217.88 82.78c1.8126 3.3887 3.0415 5.4609 6.3211 7.7101 6.3818 4.3783 14.496 3.3628 21.311 0.45863 0.0134-0.4147-0.0393-0.78548 0.14521-1.1072-0.0459 2.5606 0.62955 5.187 1.5349 7.5654-8.1313 0.7674-15.702 1.509-22.969-3.6794-3.4955-2.496-5.7447-6.696-6.3432-10.948z" display="block" fill="#028371" stop-color="#000000" style="-inkscape-stroke:none;font-variation-settings:normal"/><path d="m293.61 47.884 0.14728 0.09134c0.54519 0.34042 0.94826 0.50643 1.0917 1.1289-0.0633 0.45139-0.22221 0.55927-0.5271 0.90033-1.35-0.33564-1.6989-1.1192-0.71185-2.1205z" display="block" fill="#fff"/><path d="m236.45 24.492c0.88341-0.11007 2.3461-0.06615 3.2724-0.05452 9.6663 0.12118 20.134 2.953 27.243 9.7684 1.518 1.4384 3.8254 4.0168 3.1096 6.2961-0.50385 1.6009-2.6032 0.30967-3.284-0.30282-0.71184-0.64079-1.6808-1.1756-2.5308-1.475l-0.18862-0.06537c3.1833 3.9082 5.957 7.4494 5.7529 12.896-0.11369 3.0673-2.8564 8.5587-6.4466 4.7877-0.85912-0.90356-0.60461-3.6652-0.98185-4.91-0.45088-1.4832-0.72993-1.83-1.7286-3.0028 0.93535 2.57 0.49481 6.0145-3.1838 5.0724-2.4929-0.63833-2.2226-4.8447-3.3844-6.977-1.5757-2.8921-3.4715-4.1505-6.5904-5.2149 0.32491 0.51147 0.59531 0.94994 0.82578 1.5153 1.2716 3.12-0.69724 5.5662-3.9424 4.1081-2.011-1.7553-2.8647-4.4479-5.5068-6.2908-12.446-8.6809-29.595-1.4909-39.009 8.4322-1.3703 1.4444-2.736 3.2751-3.9432 4.8671 7.4206-17.035 22.029-27.816 40.517-29.451z" display="block" fill="#fff"/></g></g><path d="m225.84 38.57c-13.589 0.08316-26.568 10.659-32.165 22.577-0.70435 1.4998-2.2684 4.3429-2.4 5.9322-1.2748 3.1714-1.9972 8.1067-2.5105 11.537 0.74699-1.6691 1.357-3.4319 2.1308-5.1308 2.2408-4.9087 5.2972-9.4025 9.0385-13.291 9.119-9.495 22.3-14.316 35.318-14.575 1.8628 0.16485 4.4013 0.3 6.1658 0.68279-2.2096-3.816-5.4282-6.1191-9.7358-7.0997-1.9464-0.44306-3.9-0.64464-5.8413-0.63276zm24.65 6.2687c-0.26342 1.0298-0.41193 1.7073-1.1119 2.5595-0.84581 1.0178-2.0747 1.6406-3.3957 1.7207-0.93521 0.05594-1.9769-0.26711-2.6877-0.89175h-9.7e-4c-0.21465-0.045743-0.42985-0.077137-0.64602-0.095159-0.09607-0.007932-0.19237-0.012792-0.28863-0.015697-0.10099-0.003047-0.20207 0.010445-0.30315 0.012754-0.13283 0.003022-0.26529 0.00396-0.39807 0.015696-0.14859 0.013137-0.29631 0.0366-0.44457 0.059842-0.13229 0.020726-0.26434 0.038576-0.39613 0.06671-0.14181 0.030279-0.28229 0.069784-0.42326 0.10791-0.13851 0.037455-0.27708 0.071445-0.41453 0.11576-0.13605 0.043862-0.2701 0.095305-0.40486 0.14519-0.12702 0.04702-0.25401 0.091451-0.37967 0.14323-0.37735 0.15548-0.73702 0.34575-1.0983 0.53368-0.16151 0.084003-0.33066 0.15311-0.48814 0.24133-0.50084 0.28052-0.98102 0.57755-1.4306 0.87115-1.5733 1.0276-2.9508 2.1496-4.1735 3.361-1.2223 1.2111-2.2896 2.5113-3.2398 3.8956-1.4256 2.0767-2.546 4.3996-3.5797 6.8368-0.3443 0.81178-0.71687 1.5868-1.0373 2.4359 0.94667-0.48086 1.6769-0.82583 2.6315-1.239 0.71985-0.3115 2.4253-0.78111 3.1546-1.1419 0.0897-0.044377 0.16432-0.086945 0.22083-0.12753 0.56198 0.077256 0.58643 0.07584 1.0644 0.362 0.71532 1.1638-1.4755 2.0175-2.0795 2.687-1.1487 0.77789-2.1991 1.7301-3.0751 2.8018-0.21902 0.26793-0.42675 0.54301-0.62278 0.82504-0.19629 0.28239-0.38024 0.57045-0.5511 0.86526-0.17065 0.29442-0.32782 0.59449-0.47071 0.8996v9.81e-4c-0.14274 0.30485-0.27186 0.61424-0.38451 0.92805-0.11287 0.31437-0.20931 0.63288-0.2896 0.95454-0.08024 0.32137-0.14353 0.64525-0.18887 0.9722v9.81e-4c-0.12963 0.93562-0.10378 1.8907 0.09008 2.845 0.0093 0.045794 0.01119 0.091554 0.02131 0.13734v9.81e-4c0.07363 0.33312 0.16871 0.66583 0.28669 0.9977 0.23621 0.66465 0.56342 1.3244 0.99179 1.9738 0.10637 0.16117 0.22095 0.31499 0.34286 0.46108 0.1221 0.14629 0.25171 0.28466 0.38742 0.41694 0.81293 0.79265 1.8524 1.3434 2.9056 1.7707 1.1008 0.53744 3.3197 0.43454 4.5919 0.42674-0.2226-2.0593-0.56848-4.2745-0.66248-6.3296-0.46651-10.181 3.776-20.778 12.679-26.254 2.717-1.6711 4.9253-2.2387 7.9731-2.8852-0.48924-1.924-1.1997-3.1457-2.6742-4.4705zm-16.841 2.6017c-1.5933 0.016649-3.1654 0.13871-4.3342 0.47874-7.9928 2.3254-14.674 9.0549-18.86 15.923-6.2122 10.191-7.6293 18.122-4.9309 29.604 2.4287-0.50514 3.8887-0.48158 6.157 0.44342 2.5947 1.6627 3.476 3.5408 3.7299 6.512l1.9671-0.03335c7.7772 1.6937 7.3409 8.5722 7.2496 14.81l3.327-1.3754c-0.75448-3.0902-2.2089-3.7632 1.6175-4.289-1.572-2.6781-3.6064-4.8815-5.0016-7.8374-1.2681-2.6872-2.0024-5.2336-3.1449-7.9208-0.19883-0.46638-1.4676-2.0477-1.8528-2.5722-0.6227-0.86429-1.177-1.7764-1.6591-2.7272-2.7032-5.2361-2.3767-11.861 0.93755-16.779 0.91583-1.3591 2.166-2.2316 3.142-3.4591 0.11847-0.14896 0.6771-2.0034 0.78356-2.324 2.0106-6.0523 5.7624-12.03 10.969-15.797 1.4267-1.0322 2.8178-1.7147 4.3672-2.5046-1.2549-0.079259-2.8698-0.16773-4.4631-0.15108zm-10.75 1.4843c-3.3494 0.80576-7.9004 2.6136-10.885 4.3096-2.3557 1.2356-4.5191 2.7605-5.9285 3.8113-9.2209 6.8735-15.971 18.572-17.563 29.942-0.55061 3.9339 1.3897 15.08 2.4165 19.018 3.3626 12.994 10.091 24.872 19.507 34.437 1.4322 1.4377 3.0161 3.1052 4.6171 4.3067 1.2194 1.0942 2.4568 2.1671 3.7134 3.2187-0.80861-1.1033-1.9326-2.6942-2.8185-3.6631-1.2028-1.8022-2.4082-3.6032-3.5856-5.426-10.86-16.823-15.144-37.796-10.807-57.433 2.9006-13.131 9.7056-25.195 21.334-32.521zm16.174 11.043c-3.0344 5.0177-4.5284 9.7466-4.8117 15.613-0.15929 3.2986 0.24719 5.8185 0.69445 9.047 0.71791-0.21058 1.4392-0.41627 2.1492-0.6514 1.1952-0.47801 2.3855-0.97367 3.4751-1.6687-3.0945-6.1414-4.2098-13.303-2.2092-20.02 0.17118-0.57477 0.77792-1.8571 0.73222-2.2907l-0.03002-0.029431zm99.158 34.619c-11.041 11.756-27.225 20.017-43.496 20.544-2.9714 0.11498-5.9476 0.01339-8.9048-0.30313-0.1124-0.05943-1.4472-0.28997-1.694-0.33257-3.4546-0.59428-6.7032-1.4724-10.066-2.4594 0.66404 1.1576 1.3531 2.4343 2.1269 3.5091 1.0852 0.43021 2.6963 0.88703 3.8577 1.2694l7.9111 2.6134c1.925 0.63562 3.6929 1.6754 5.6437 1.8433 13.299 1.1498 31.756-4.8764 41.938-13.345 0.67179-2.164 1.0471-3.9258 1.5923-6.1079 0.35139-2.3035 0.68589-4.9703 1.0916-7.2311zm-114.28 1.0409c1.6277 4.7026 4.7046 10.32 8.0641 14.052 2.899 0.06718 6.2235 0.13873 9.1101 0.32864 0.1009-0.66146 0.13977-1.0132 0.36999-1.654 0.49274-0.82166 1.0951-1.3427 1.8122-1.9718-1.9536-2.182-3.468-4.3114-5.0771-6.7622-4.4868-0.10077-8.7226-0.91271-12.635-3.1167-0.48822-0.27389-1.1419-0.64351-1.6446-0.87605zm-22.39 3.1187c0.51651 19.676 9.0168 37.967 22.235 52.341 1.122 1.2209 5.1202 3.1722 6.6917 3.9731 10.455 5.3252 22.581 8.4414 34.356 8.0513 0.89271-0.031 1.7853-0.06923 2.678-0.11183-8.2383-2.0567-16.084-5.4504-23.225-10.046-1.5635-1.0038-2.9712-2.1444-4.4476-3.2619-0.285-0.21575-1.427-1.1397-1.6727-1.2753-1.8217-1.5432-3.4857-3.0511-5.0326-4.5726-4.6407-4.5645-8.2258-9.2533-11.84-15.405-0.88509-1.5258-1.7156-3.0845-2.4892-4.6697-1.4303-2.9042-1.15-2.8635-3.7967-4.9022-5.4869-4.2232-9.0392-9.7668-12.022-15.903-0.28758-1.2234-1.018-2.9358-1.4354-4.2174zm44.803 0.41792c-0.6483 0.004199-1.3402 0.10335-1.7124 0.13048-1.4733 0.10852-2.9474 0.20378-4.4224 0.28646 1.1494 1.7867 2.4203 3.7049 3.8984 5.2397l0.20436 0.00392c0.44817-0.60074 0.51672-1.5741 1.2426-2.6154 0.61715-0.88625 2.0348-1.9548 2.2422-2.6085-0.20006-0.35011-0.80453-0.44076-1.4528-0.43656zm13.183 5.2122c-2.8608 3.2944-4.8384 3.6719-8.4632 5.9999 1.7664 1.124 6.321 1.5508 8.5939 1.8983 2.1973 0.42633 4.2049 0.82231 6.4282 1.0742-1.2351-1.9043-2.362-3.1495-0.57532-5.121-1.2557-0.76094-2.4977-1.541-3.7289-2.3407-0.26484-0.17441-2.1757-1.4785-2.2548-1.5108zm75.274 6.1128c-2.2957 1.3591-4.0282 2.7707-6.4699 4.1066-8.8987 4.8666-21.396 8.6882-31.609 8.3122 1.5232 0.84104 3.041 1.6926 4.5512 2.5556 0.64466 0.36949 1.9294 1.1635 2.5637 1.449 0.05693 0.01849 0.12361 0.04668 0.19856 0.08339 0.52464 0.25695 1.4626 0.93405 2.4223 1.656 1.0968 0.82524 2.2216 1.7095 2.7894 2.0945 6.165-1.1291 13.236-2.724 18.941-5.3996 1.0116-1.4986 3.6054-6.7194 4.1454-8.4015 0.90692-1.4754 1.9924-4.765 2.4678-6.4561zm-114.76 12.037c1.0246 2.3681 3.4214 6.3632 4.8137 8.4859 6.2501 9.5576 14.686 17.491 24.609 23.143 2.203 1.2325 7.2934 3.4542 9.5063 4.3999 2.5177 1.0762 12.464 3.937 14.814 3.7897 5.147-0.32427 14.434-3.2413 19.315-5.4427 0.79581-0.35915 2.1615-0.99921 2.8243-1.5392 2.7414-0.83585 8.2878-4.617 10.699-6.2462-23.584 6.2993-47.326 0.55504-64.811-16.257-0.4067-0.39145-1.6666-1.6703-2.0853-1.8228-2.1036-0.7648-4.2912-1.4211-6.4282-2.12-1.4305-0.59815-2.9009-1.0788-4.34-1.6834-3.1601-1.3294-6.0044-2.9096-8.9155-4.7079zm106.34 5.3858c-0.42295-0.01596-1.1358 0.28545-1.4828 0.42675-4.4636 1.8151-9.1247 2.8606-13.818 3.929 1.6704 1.3888 2.4916 2.0254 3.573 3.878-2.4546 0.79323-4.8136 1.6884-7.3406 2.2387-14.905 3.2517-30.35 1.0891-44.967-2.5644-1.3462-0.33719-2.6773-0.7646-4.0369-1.0566-5.0647-1.1369-10.382-1.7284-15.396-3.0745 1.0995 1.2028 2.7375 2.3113 3.9807 3.363 5.687 4.8124 12.178 8.6194 19.211 11.09 0.93792 0.32943 3.1316 1.1599 4.0669 1.2361 0.89269 0.29454 1.8602 0.48913 2.7671 0.71909 11.043 2.7983 22.485 2.3874 33.446-0.60333 0.93922-0.25579 2.9405-0.65257 3.6834-1.1655 3.3693-2.3267 6.7403-5.9521 9.421-8.9312 2.1084-2.1316 3.6924-4.3778 5.39-6.8299 0.39532-0.57103 1.642-2.0497 1.664-2.6272-0.04667-0.01663-0.10133-0.02519-0.16175-0.02747z" display="block" fill="url(#linearGradient37)" stroke-width=".12919"/><path d="m280.32 94.201c1.4095-0.04651 2.7802-0.02455 4.1884-0.0065l51.928-9e-3c-0.64983 0.686-1.3488 1.4612-2.0645 2.0606-0.30876 0.26872-2.089 1.8668-2.3448 2.0283-0.71185 0.61107-1.3901 1.2351-2.1872 1.7273-1.0116 0.70022-2.1123 1.4986-3.16 2.1239-1.0116 0.69634-1.9198 1.3849-3.0864 1.8035-0.76481 0.38628-1.6588 0.71443-2.4611 1.0103-10.474 3.8602-22.376 4.1173-33.185 1.5774-2.3913-0.56198-6.0229-1.5723-8.2501-2.6278 3.0218-3.2324 1.8461-6.0229 0.6227-9.688z" display="block" fill="url(#linearGradient12)" stroke-width=".12919"/><g fill="#fff" stroke-width=".12919"><path d="m250.68 58.379c0.99179 5.0228 0.49589 4.5206 5.4548 5.5251-4.959 1.0046-4.4631 0.50228-5.4548 5.5251-0.99179-5.0228-0.4959-4.5206-5.4548-5.5251 4.959-1.0046 4.4631-0.50228 5.4548-5.5251z" display="block" fill-opacity=".5"/><path d="m202.44 84.859c0.21833 0.67308 0.33887 3.8189 0.49919 4.7852 0.38809 2.0516 0.47517 3.0166 1.0768 5.1496 1.4254 5.0552 4.3554 10.502 8.0963 14.237 0.28331 0.28292 1.726-0.37337 2.1784-0.49481 2.6128-0.69763 3.323 1.4198 3.6309 3.5308 0.0469 0.31393 0.28332 0.3979 0.53162 0.51288 0.33383-0.11368 0.44675-0.14469 0.60255-0.50901 0.83845-1.9624-0.37142-4.0798-2.1844-4.9325-1.3069-0.60462-2.8049-0.64854-4.1451-0.12144-0.049 0.0194-0.0981 0.0401-0.14702 0.0594-2.9148-3.5993-5.2878-7.5628-6.5447-12.043 3.3623-0.63433 6.6515 0.34106 7.5507 4.0256 0.29198 1.1963 0.19792 2.2841 0.15297 3.5024 2.7068-0.79711 4.7454-0.76998 6.9493 1.3061 4.5554 4.2891 0.39029 10.693 4.2253 15.301 0.39145 0.47026 1.2883 1.6381 1.8914 1.7182 1.1687-1.2376 2.4267-1.9831 4.157-1.332 1.9912 0.74931 2.563 3.2259 3.2869 5.0384 1.545-1.2557 3.5002-2.4701 5.4927-1.363 2.1934 1.217 2.5341 3.952 4.2083 5.709 1.0713 1.124 1.6055 1.4185 3.0383 2.0218-0.34468-0.0607-0.68794-0.13048-1.0294-0.2067-16.556-3.7168-33.882-11.255-41.004-27.896-2.1692-5.0682-3.7555-12.556-2.5138-17.999z" display="block"/><path d="m313.61 77.844c3.7323-0.61728 7.9685 0.85938 10.702 3.4181 3.4274 3.2091 4.4752 6.5771 4.6961 11.134-3.9532-0.05684-7.9814-0.02196-11.941-0.02713l-15.839 0.01421c0.10594-7.4634 4.7465-13.664 12.382-14.539z" display="block"/></g><g stroke-width=".12919"><path d="m277.59 91.998c0.72605 0.76223 2.0826 5.3369 2.2815 6.5409 0.48318 2.9339-1.8849 4.9571-3.8486 6.7864-1.6381 1.5257-3.3383 3.005-4.7982 4.8447 0.89013 1.7002 2.8771 5.5035 4.1018 6.7438 3.3964 0.94051 5.2865 0.77643 6.6469 4.3847-0.75447-0.22092-1.6433-0.55423-2.3978-0.8152-0.91597-1.4198-1.456-1.7195-3.1665-1.9805-1.0322-0.15633-2.0244-0.36174-3.0256-0.6563l1.0142 1.2609c0.51289 0.11498 1.1098 0.20541 1.6343 0.29972 1.85 0.26226 2.1665 1.2286 2.6278 2.8345-2.6329-0.75706-5.3188-1.2157-8.0202-1.9779-1.2687-4.4545-2.35-6.2438-4.5307-10.127 0.60332-1.0503 1.6446-2.1265 2.1807-3.2052 1.2829-2.5825 0.81261-4.3499 3.253-6.2516-1.2015-0.52968-2.452-1.142-3.6471-1.7027 4.1457-2.1575 6.2684-3.9649 9.6945-6.9789z" display="block" fill="#028371"/><path d="m229.16 111.29c-0.2399 0.33718-0.11294 0.62862 0.04842 1.0046 0.05387 0.11886 0.34547 0.75198 0.37677 0.76618 2.3621 1.1588 9.2912 2.8974 11.56 3.5111 0.16203-1.5981 0.14407-3.1747 0.15497-4.7805-1.2044-0.38887-10.623-0.63179-12.14-0.5013zm20.341 1.1576c-0.17097-0.00478-0.34179 0.00124-0.51139 0.02256-0.16251 0.38499-0.04024 0.68414 0.04746 1.1066 0.4182 1.7118 0.64598 3.8834 2.1947 4.7619 3.734 2.1174 8.1468 2.8434 12.239 3.9506 4.3266 1.1705 8.6826 2.1732 12.952 3.4198-0.41341-0.93405-0.84924-1.857-1.3066-2.7704-1.6885-0.40437-4.3867-0.71353-5.7018-1.552-0.47025-1.1408-1.2538-4.0887-1.6698-4.8031-0.17053-0.40049-0.4122-0.84139-0.61503-1.2341-5.3563-1.0129-10.675-2.0673-16.09-2.7184-0.50801-0.06104-1.0251-0.1691-1.538-0.18345zm-19.932 2.6821c-0.01761 3.6e-4 -0.0329 0.00119-0.04649 0.00294-1.3455 0.4793-2.9129 0.9961-4.2122 1.549l1.4877 2.0258c3.5791-1.6885 7.0446-0.8289 8.1377 3.2639 0.49363-0.18991 0.99463-0.38995 1.4945-0.55919 1.7593-0.22996 2.5356-0.12881 4.1676 0.60628l0.48524-3.7917c-1.4212-0.41712-10.404-3.1199-11.514-3.0971zm58.217 6.0402c0.24934 0.61624 0.50481 1.13 0.79808 1.7217 0.66404 1.894 2.0807 4.745 2.9502 6.6376 5.0165 1.4289 10.165 2.5613 15.207 3.9114 0.82812 0.2222 1.8328 0.50326 2.6674 0.63374l1.9003 0.58959c-6.0216-5.7102-15.694-10.827-23.523-13.494zm-32.153 0.62393c0.20619 1.3656 0.44741 2.5928 0.24019 3.9751-1.6828-0.86687-2.7085-1.4486-4.5648-1.8375-0.19444 1.5128-0.41283 2.2768-0.9637 3.7083-2.0858-1.6536-2.3427-2.3027-4.711-3.6837-0.64828 0.80098-1.1282 1.3736-1.6601 2.2495 1.9597 3.4946 10.095 5.4701 13.955 6.6974 0.97488 0.22867 14.954-5.1565 17.09-5.9097-5.5074-1.7234-11.251-2.9476-16.816-4.4862-0.83703-0.23254-1.7497-0.44062-2.5696-0.71321zm35.345 9.2442-15.329 5.8037c5.8058 1.009 13.311 1.691 19.18 1.3008 4.4106-0.13307 11.105-0.76378 15.271-2.1965-4.2155-1.1834-8.4463-2.3069-12.693-3.3688-1.7609-0.44571-4.698-1.2408-6.4292-1.5392z" display="block" fill="url(#linearGradient103)"/><path d="m229.16 111.29c-0.2399 0.33718-0.11294 0.62862 0.04842 1.0046 4.2952-0.31781 7.5167 0.04307 11.758 0.27174 0.25993-0.17053 0.22569-0.37323 0.33318-0.77501-1.2044-0.38887-10.623-0.63179-12.14-0.5013zm20.341 1.1576c-0.17097-0.00478-0.34179 0.00124-0.51139 0.02256-0.16251 0.38499-0.04024 0.68414 0.04746 1.1066 4.1765 0.06718 9.4698 1.3292 13.63 2.0552 0.83329 0.14469 4.5797 1.1364 5.0771 0.9516-0.17053-0.40049-0.4122-0.84139-0.61503-1.2341-5.3563-1.0129-10.675-2.0673-16.09-2.7184-0.50801-0.06104-1.0251-0.1691-1.538-0.18345zm38.286 8.7223c0.24934 0.61624 0.50481 1.13 0.79808 1.7217 1.5128 0.42763 3.4039 1.4046 4.865 2.0415 4.7219 2.0516 9.0464 4.338 13.31 7.237 0.74801 0.50772 2.0789 1.2543 2.6499 1.9042l1.9003 0.58959c-6.0216-5.7102-15.694-10.827-23.523-13.494z" display="block" fill="#fff" fill-opacity=".5" stop-color="#000000" style="-inkscape-stroke:none;font-variation-settings:normal"/></g><g stroke-width=".12919"><path d="m265.58 99.882c-0.02265 0.001037-0.04431 0.002737-0.0649 0.005886-1.6368 0.57877-2.453 0.70439-4.1919 0.91627-0.43666 0.80615-0.66486 1.265-1.0044 2.1151 1.4919 1.04 3.102 2.0605 4.6316 3.0578l1.5468 0.99868c0.92114-1.9469 1.1605-3.6283 2.2548-5.8155-0.8085-0.3542-2.47-1.3104-3.172-1.2783zm12.808 5.3937c-0.5904 0.53873-0.82081 0.81885-1.3104 1.4235-0.99218 0.93017-2.6199 2.3739-3.4868 3.3325 10.014 3.6083 20.284 4.4484 30.695 2.1759 2.1859-0.47671 4.9527-1.0511 6.9512-1.9993 1.0598-0.3749 2.637-0.91296 3.8626-1.4892 0.40849-0.19206 0.77792-0.38866 1.0761-0.58469-9.7704 2.3459-19.968 2.2766-29.704-0.20503-3.368-0.88755-4.979-1.615-8.0835-2.6537z" display="block" fill="url(#linearGradient12)" stop-color="#000000" style="-inkscape-stroke:none;font-variation-settings:normal"/><path d="m277.46 127.67c0.86945-0.0349 9.4684 2.328 10.902 2.713-1.8991 0.74673-15.543 5.9312-16.217 5.864-3.3422-0.59557-8.2592-1.6678-11.525-2.6174 1.7118-0.42374 3.3034-1.1136 4.9622-1.6446 3.961-1.2674 7.9801-2.9972 11.878-4.315z" display="block" fill="#d5bcf6"/><path d="m282.65 119.41c1.0025 0.30618 1.9999 0.63045 2.9908 0.97152 0.33719 0.66921 0.69764 1.3371 0.94956 2.0412 0.48059 0.59298 2.6575 5.7593 2.9921 6.6727-2.7815-0.83587-8.3354-2.3461-11.066-2.8293-0.4793-0.94697-0.93922-1.9017-1.3785-2.8668 1.0968 0.32298 1.726 0.52064 2.766 0.97281l0.15115-2.1394c1.4237 0.34235 2.2337 0.54906 3.691 0.71701-0.053-0.69376-0.0995-0.9276-0.27388-1.602-0.38628-0.61624-0.5749-1.2519-0.82166-1.9379z" display="block" fill="#d5bcf6"/></g><g stroke-width=".12919"><path d="m282.65 119.41c1.0025 0.30618 1.9999 0.63045 2.9908 0.97152 0.33719 0.66921 0.69764 1.3371 0.94956 2.0412-0.32039-0.0543-2.5864-0.90176-3.1187-1.0749-0.38628-0.61624-0.5749-1.2519-0.82166-1.9379z" display="block" fill="#fff" fill-opacity=".5"/><path d="m286.46 80.739c2.1368 1.0645 7.7308 1.4508 7.3381 4.4829-0.37207 0.29585-0.45088 0.19895-1.0361 0.24159-1.0309-0.14728-1.0594-1.4289-2.0735-1.8138-1.2532-0.47542-4.1018-0.07364-5.2142-0.64079l-0.0594-0.23771c0.21704-0.77773 0.62399-1.341 1.0452-2.0322z" display="block" fill="#028371"/><path d="m295.74 56.196 0.20412 0.06963c0.093 0.24779-0.0904 2.7208-0.093 3.3508-1.487-0.17389-3.5204-0.2164-4.5643-1.2468-0.59557-0.736-0.84232-1.1216-1.3332-1.9377 2.4585 0.94981 3.4817 0.6904 5.7865-0.2359z" display="block" fill="#9b5de5"/></g><g fill="#fff"><g stroke-width=".12919"><path d="m307.65 56.235 0.1912-0.01408 0.10723 0.1828c-0.084 0.70668-0.33332 1.3803-0.81262 1.9154-0.32427-0.56521-0.65499-0.97397-0.60849-1.5841 0.39404-0.40566 0.48318-0.31897 1.1227-0.49997z" display="block"/><path d="m310.46 55.448c0.34494 0.01331 0.19249-0.04819 0.48059 0.13255 0.0891 0.63058-0.34106 1.2999-0.63562 1.8762-0.50643-0.42685-0.80615-0.99025-0.7028-1.6465 0.3191-0.35889 0.26355-0.24753 0.85783-0.36225z" display="block"/><path d="m304.55 57.054 0.2881 0.0056 0.17182 0.18939c-0.0336 0.5709-0.51547 1.0901-0.894 1.4892-0.29068-0.46018-0.67308-0.97035-0.6873-1.4599 0.38758-0.2983 0.51289-0.19456 1.1214-0.22428z" display="block"/><path d="m304.45 63.275c0.39661 0.33344 0.54001 1.3344 0.1744 1.7353-0.13177 0.14456-0.37594 0.05969-0.5904 0.04728l-0.45734-0.23022-0.0827-0.2642c0.11369-0.474 0.60849-0.91028 0.95602-1.2882z" display="block"/><path d="m301.9 62.348c0.61882 0.2319 0.61236 1.3702 0.24158 1.7668l-0.31135-0.05581c-0.52451-0.35256-0.55164-0.24986-0.76352-0.73264 0.11111-0.41122 0.50256-0.68058 0.83329-0.97836z" display="block"/><path d="m300.6 56.703c0.58782 0.04548 0.87462 0.0146 1.2958 0.32324 0.0956 0.40502-0.11627 0.69802-0.30359 1.0967-0.15116 0.14353-0.0504 0.08036-0.33073 0.13268-0.44959-0.34507-0.5749-1.0207-0.66146-1.5526z" display="block"/><path d="m307.4 63.948c0.15761 0.49351 0.28034 0.92824 0.0879 1.3865-0.3682 0.27686-0.6873 0.19831-1.164 0.18229-0.12144-0.16808-0.0672-0.10955-0.0814-0.38111 0.2713-0.53718 0.68471-0.79879 1.1576-1.1877z" display="block"/><path d="m299.9 60.568c0.14857 0.45088 0.2235 1.4303-0.12402 1.7923l-0.32169-0.14405c-0.26742-0.27078-0.35398-0.30063-0.42633-0.67024 0.11369-0.43279 0.51289-0.6798 0.87204-0.97798z" display="block"/></g><g fill-opacity=".5"><g stroke-linecap="round" stroke-linejoin="round" stroke-opacity=".32941"><path d="m314.4 31.053v44.925c0.49765-0.025462 0.99013-0.024011 1.4877 0.002943v-43.401c-0.5166-0.64307-0.7448-0.85075-1.3763-1.4166-0.03711-0.03678-0.07423-0.073266-0.11138-0.10988z" stroke-width="2.0539"/><path transform="matrix(.94988 .31261 -.30546 .95221 0 0)" d="m327.62-56.505 1.4e-4 29.369 1.4889 0.03559 1e-4 -27.973c-0.22682-0.21167-0.45321-0.4219-0.67607-0.63111-0.249-0.25714-0.5208-0.52462-0.81309-0.80041z" stroke-width="2.054"/><path transform="matrix(.80542 .59271 -.58286 .81257 0 0)" d="m309.29-147.49 1.4e-4 18.789 1.4942 0.0558-8.7e-4 -17.712-0.69601-0.50645c-0.26399-0.21144-0.52978-0.42037-0.79751-0.62679z" stroke-width="2.054"/><path transform="matrix(.58286 .81257 -.80542 .59271 0 0)" d="m260.59-230.76 3e-5 12.498 1.4992 0.06995 3.1e-4 -11.797c-0.23424-0.12233-0.46836-0.2437-0.69775-0.36424-0.26957-0.13914-0.53681-0.27438-0.80174-0.40704z" stroke-width="2.054"/><path transform="matrix(.30546 .95221 -.94988 .31261 0 0)" d="m185.67-296.81-1e-4 9.1167c0.12342 0.00103 0.24299 0.00509 0.3583 0.01325 0.38249 0.01619 0.76386 0.03499 1.146 0.05549l2.2e-4 -8.7373c-0.50036-0.15353-1.0037-0.30363-1.5044-0.44809z" stroke-width="2.054"/><path transform="matrix(.94988 -.31261 .30546 .95221 0 0)" d="m272.57 151.89c-0.72222 0.33385-1.1086 0.43042-1.4905 0.15459l4.1e-4 2.1359c0.0168-3e-3 0.034-5e-3 0.0515-8e-3 0.10626-0.0175 0.21124-0.0366 0.31697-0.0567 0.63919 0.3808 0.58545 1.1872 0.57166 1.8814 0.16234-0.0872 0.34979-0.19896 0.54949-0.29455zm-9e-5 9.9884c-0.16125 0.12555-0.30663 0.23501-0.42111 0.32022-0.42199 0.19533-0.71769 0.33433-1.0689 0.464l-3.3e-4 7.2622c0.45975-0.0244 1.0146-0.0199 1.4899-0.026z" stroke-width="2.054"/><path transform="matrix(.80542 -.59271 .58286 .81257 0 0)" d="m201.41 231.78 6e-4 13.293 1.4933-0.0529-1.4e-4 -10.818c-0.29014-0.43512-0.56857-0.87348-0.84399-1.3014-0.18049-0.38959-0.40368-0.76345-0.64979-1.1211z" stroke-width="2.054"/><path transform="matrix(.58286 -.81257 .80542 .59271 0 0)" d="m113.02 277.61c-0.41119 0.0945-0.80696 0.22581-1.1759 0.39398l-0.32379 0.14534 6.4e-4 15.875 1.3731-0.0906c0.0418-2e-3 0.0839-2e-3 0.12567-3e-3l7.9e-4 -5.7e-4z" stroke-width="2.054"/><path transform="matrix(.30546 -.95221 .94988 .31261 0 0)" d="m11.375 307.4c-0.3407 0.18089-0.71733 0.35958-1.1326 0.53552l-0.37311-0.035 2.408e-4 4.6546 1.0167-0.04143c0.16142-0.00209 0.3242 5.5e-4 0.4883 0.00612l5.39e-4 -5.1198z" stroke-width="2.054"/><g stroke-width=".47912"><path d="m281.43 24.475c-1.4877 0-0.24795-6.2786 0-8.2877 0.24795 2.0091 1.4877 8.2877 0 8.2877z"/><path d="m283.53 25.358c-0.70131-0.71034 1.7532-2.131 3.1559-3.1965-1.052 1.4207-2.4546 3.9069-3.1559 3.1965z"/><path d="m281.43 30.503c1.4877 0 0.24795 6.2786 0 8.2877-0.24795-2.0091-1.4877-8.2877 0-8.2877z"/><path d="m278.45 27.489c0 1.5069-6.1987 0.25114-8.1823 0 1.9836-0.25114 8.1823-1.5069 8.1823 0z"/><path d="m284.4 27.489c0-1.5069 6.1987-0.25114 8.1823 0-1.9836 0.25114-8.1823 1.5069-8.1823 0z"/><path d="m283.53 29.62c0.7013-0.71034 2.1039 1.7758 3.1559 3.1965-1.4026-1.0655-3.8572-2.4862-3.1559-3.1965z"/><path d="m279.32 29.62c0.70131 0.71034-1.7532 2.131-3.1559 3.1965 1.052-1.4207 2.4546-3.9069 3.1559-3.1965z"/><path d="m279.32 25.358c-0.7013 0.71034-2.1039-1.7758-3.1559-3.1965 1.4026 1.0655 3.8572 2.4862 3.1559 3.1965z"/></g></g><path d="m302.25 28.242c0.99179 5.0228 0.49589 4.5206 5.4548 5.5251-4.959 1.0046-4.4631 0.50228-5.4548 5.5251-0.99179-5.0228-0.4959-4.5206-5.4548-5.5251 4.959-1.0046 4.4631-0.50228 5.4548-5.5251z" display="block" stroke-width=".12919"/><path d="m336.44 94.185-51.928 0.008829c-0.04418-5.66e-4 -0.08859-4.09e-4 -0.1327-9.81e-4a0.99179 1.0046 0 0 0-0.46877 0.85349 0.99179 1.0046 0 0 0 0.99179 1.0055h49.698c0.63702-0.56688 1.2577-1.253 1.8393-1.8669z" display="block"/><path d="m296.06 98.061a0.99179 1.0046 0 0 0-0.99179 1.0046 0.99179 1.0046 0 0 0 0.99179 1.0056h33.684c0.03335-0.02316 0.0666-0.0467 0.09976-0.06965 0.79711-0.49222 1.4751-1.1165 2.187-1.7276 0.0464-0.029293 0.14235-0.10556 0.27119-0.21288h-36.242z" display="block"/><path d="m305.23 102.08a0.99179 1.0046 0 0 0-0.99179 1.0046 0.99179 1.0046 0 0 0 0.99179 1.0056h18.039c0.11036-0.05137 0.21847-0.10441 0.32446-0.15795 1.1666-0.41858 2.0752-1.1068 3.0868-1.8031 0.02707-0.01615 0.05422-0.03267 0.08135-0.04905h-21.532z" display="block"/><path d="m292.89 44.037c-1.9851-0.07792-3.78 2.6764-4.8447 2.4859 9e-3 -0.45889 0.0905-0.30715-0.10073-0.62393-1.4366-0.01977-3.146 0.96489-4.3449 1.7266-5.8653 3.6949-3.7422 10.974-7.7406 15.826-2.9908 3.6288-8.9568 3.1129-12.955 5.4153-2.443 1.4062-4.3874 3.4163-6.6432 4.7364-2.5568 1.4963-5.6025 1.9387-7.7067 4.4058-4.2636 4.1695-8.6003 7.6524-14.726 8.3681-6.37 0.74414-11.469-2.2689-12.022-8.993-0.33887-4.1301 2.0048-6.8914 4.5192-9.8446-0.96318 0.57394-1.8982 1.1658-2.7758 1.8237-1.7013 2.2704-3.009 4.7996-2.7381 8.1023 0.2956 3.5997 1.8635 6.3591 4.25 8.0326s5.5128 2.2645 8.8825 1.8708c6.4423-0.75274 11-4.434 15.307-8.6458l0.03293-0.031393 0.03003-0.035317c1.8339-2.1501 4.67-2.5644 7.451-4.1919 2.4212-1.4169 4.3514-3.4162 6.6365-4.7315 1.7852-1.0279 4.1916-1.4846 6.6074-2.1102 2.4158-0.62553 4.9037-1.4529 6.621-3.5366 2.2102-2.6819 2.6812-5.9144 3.3696-8.7458 0.68839-2.8314 1.4962-5.2082 4.1328-6.8691l0.00194-0.001962c0.87874-0.55831 1.9662-1.0604 2.8998-1.3244l-0.00387 0.21092 0.83973 0.1501c0.72455 0.12966 1.2265-0.18806 1.6523-0.46893 0.4258-0.28087 0.8193-0.61522 1.2194-0.93099 0.80019-0.63154 1.5893-1.0917 2.1095-1.0713 0.0699 0.0027 0.13529 0.010918 0.20436 0.027468 1.416 0.33932 2.5733 1.472 4.4805 1.9454 1.7917 0.44463 4.1609 0.54474 5.8287 0.67593 1.3317 0.10476 2.634 0.15387 3.7182 0.43754 1.0842 0.28366 1.9238 0.73992 2.5938 1.7443 0.7675 1.1497 0.83569 2.5556 1.1632 4.2596 0.32272-0.058965 0.65097-0.11025 0.98695-0.15206-0.31393-1.6186-0.36412-3.2297-1.3201-4.6618-1.6368-2.454-4.4656-2.4189-7.0636-2.6233-1.695-0.13332-4.0511-0.24869-5.666-0.64944-1.5813-0.39248-2.7674-1.534-4.4882-1.9464-0.13387-0.03208-0.2667-0.049737-0.39904-0.054937z" display="block" stop-color="#000000" stroke-linecap="round" stroke-width="1.0002"/></g></g><g><path d="m252.67 83.494c-1.4654 3.4634 1.7728 22.88 4.2093 21.301 2.1252-1.6343 3.6018-6.8678 4.1444-9.3315 0.78031-3.5502 0.97111-7.7428 0.22567-11.299-1.141-2.6792-7.0917-3.6838-8.5794-0.67007z" display="block" fill="url(#linearGradient73)" stroke-width=".12919"/><path d="m277.59 91.998c-0.25678 0.22589-0.50613 0.44528-0.74966 0.65827a0.99816 0.99816 0 0 0 0.02131 0.023544h-9.7e-4v9.81e-4 9.81e-4 9.81e-4c0.01125 0.036489 0.2521 0.4165 0.44456 0.87606 0.21609 0.51599 0.45432 1.1777 0.67605 1.8551 0.44345 1.3549 0.83245 2.8448 0.90559 3.2874 0.19312 1.1727-0.15451 2.1014-0.83779 3.0696-0.68328 0.96827-1.7131 1.8984-2.7071 2.8244-1.6216 1.5103-3.3655 3.022-4.8979 4.9532l-0.40486 0.51013 0.30122 0.5739c0.44476 0.84949 1.1695 2.2368 1.9448 3.5798 0.77529 1.343 1.5511 2.6121 2.3323 3.4032l0.18596 0.18934 0.25763 0.06965c1.7585 0.48695 3.0492 0.69965 3.91 1.1252 0.71252 0.35227 1.2343 0.8024 1.7473 1.8865 0.42948 0.15054 0.8608 0.29653 1.2552 0.41203-1.3604-3.6083-3.2507-3.4437-6.6471-4.3842-1.2247-1.2402-3.2117-5.0444-4.1018-6.7445 1.4599-1.8397 3.16-3.3186 4.7982-4.8443 1.9637-1.8294 4.3322-3.8528 3.849-6.7867-0.19895-1.2041-1.5558-5.7783-2.2819-6.5405z" display="block" fill="#028371" stop-color="#000000" stroke-linecap="round"/><path d="m284.94 57.411c0.32556 0.53435 0.66047 2.783 0.85426 3.518 0.86816 3.293 2.7299 5.3337 6.2723 5.5781 1.4288 0.16911 2.8208 0.1985 4.2354 0.50326 3.0412 0.65487 6.0256 3.1812 9.2709 2.1622 1.1382-0.35734 1.7109-1.2868 2.2548-2.2564 0 0-1.7955 1.0669-2.5531 1.3048-1.3143 0.4127-2.6028 0.1228-4.0572-0.43361-1.4544-0.55642-2.9911-1.3832-4.7042-1.7521-1.5335-0.33037-2.9613-0.35814-4.3284-0.51994l-0.0252-2e-3 -0.0242-2e-3c-1.5929-0.10991-2.6844-0.59142-3.5245-1.3783-0.84013-0.78692-1.4497-1.9335-1.8519-3.4591-0.50104-1.142-1.0429-2.2843-1.8189-3.2629z" display="block" fill="#028371" stop-color="#000000"/><g stroke-width=".12919"><path d="m276.99 77.563c9.5e-4 -0.061278 0.00128-0.12294 9.7e-4 -0.18443l-0.09298 0.093197 0.09201 0.091236z" display="block" fill="url(#linearGradient10)"/><path d="m284.6 61.971c-0.88919 1.6529-0.85532 3.6674-1.1932 6.1775-0.38246 2.8409-1.3353 6.2135-4.9192 9.8436l-0.18887 0.1913c0.07653 0.97206-0.10319 2.0274-0.22858 3.3453 1.9146 0.52322 3.1878 0.79312 4.9512 1.7207 1.3165-1.841 2.8114-4.185 3.4974-6.3443 1.2364-3.8912 1.238-6.2717 4.7972-8.9685-2.4004-0.35192-3.0728-0.61335-4.9745-2.328-0.61941-0.55828-1.3027-2.0533-1.7414-3.6376z" display="block" fill="#028371"/><path d="m272.42 84.046c-3.0801 2.6077-5.499 4.094-8.991 5.8842 0.00397 0.19116 0.00551 0.3909 0.00581 0.5994v9.81e-4 9.81e-4c-0.21575 3.3448-0.7745 5.4679-1.6427 8.6409 0.85395-0.14469 2.094-0.34134 2.8989-0.6514 5.7038-2.2014 11.354-6.7313 15.042-11.511-1.3178-0.24417-2.6317-0.22464-3.9623-0.30216-2.089-0.12273-2.9358-0.33476-3.3144-2.4496-0.01059-0.066791-0.02307-0.13757-0.0368-0.2119z" display="block" fill="#028371"/></g></g></g><ellipse transform="matrix(0 .52676 -.53355 0 -72.896 21.9)" cx="87.01" cy="-263.57" rx="80.365" ry="79.343" fill="none" style="-inkscape-stroke:none;font-variation-settings:normal"/><path d="m41.08 34.989q-0.41428 0.34045-0.9337 0.73077-0.50851 0.38136-1.0131 0.723-0.49567 0.35254-0.92398 0.63146l-1.0124-1.2319q0.43026-0.29878 0.87141-0.60653 0.45206-0.3167 0.85155-0.60847 0.39053-0.30267 0.66309-0.52665 0.55601-0.45692 0.82543-0.75138 0.26046-0.30537 0.33246-0.52892 0.04825-0.18577 0.01123-0.31972-0.04598-0.14486-0.15155-0.29554-0.11453-0.16159-0.26683-0.34692-0.20606-0.25075-0.37316-0.3874-0.15619-0.14561-0.29328-0.17908-0.14604-0.04436-0.33451 0.03746-0.17756 0.07286-0.42443 0.2392l-1.8491 1.1726q-0.55525 0.34671-1.0167 0.45195-0.45055 0.09629-0.85986-0.02396-0.40932-0.12025-0.79024-0.4282-0.37003-0.31692-0.75527-0.78571-0.60923-0.74134-0.76045-1.3477-0.15123-0.60631 0.0313-1.1399 0.19343-0.54252 0.65207-1.029 0.44968-0.4974 1.0493-0.99015 0.43608-0.35837 0.92085-0.70195 0.47581-0.35448 0.91502-0.64236t0.76552-0.44645l0.98551 1.1992q-0.30839 0.18037-0.69504 0.44332t-0.78808 0.57458q-0.41039 0.30073-0.75926 0.58742-0.5124 0.42108-0.78182 0.71555-0.26748 0.2746-0.35934 0.49621-0.09574 0.26133 4e-3 0.4716 0.11064 0.20131 0.32566 0.46296 0.26878 0.32706 0.45573 0.46566 0.178 0.1277 0.39528 0.05872 0.21729-0.06897 0.60199-0.31206l1.8402-1.1835q0.33214-0.21815 0.6565-0.35686t0.66589-0.1454q0.34153-0.0067 0.71425 0.18015 0.20174 0.08992 0.41558 0.26122 0.20487 0.1604 0.43274 0.39323 0.23877 0.22387 0.48962 0.52913 0.51963 0.63232 0.73822 1.165 0.22949 0.52373 0.2066 0.96262-0.02288 0.43889-0.25334 0.84745-0.21955 0.3996-0.59605 0.7638-0.36754 0.3751-0.82543 0.75138zm7.6-4.9322q-0.91925 0.46487-1.5936 0.66357-0.67434 0.1987-1.1795 0.1379-0.50514-0.060807-0.93587-0.41225-0.41814-0.35781-0.83757-0.99959-0.41321-0.66075-0.89718-1.6178l-2.4262-4.7977 1.7881-0.90427 2.6555 5.2511q0.33751 0.6674 0.58543 1.0638 0.25415 0.37749 0.50092 0.52151 0.25937 0.13766 0.63757 0.04127 0.37184-0.10898 0.96368-0.40828 0.59185-0.2993 0.88741-0.52783 0.30179-0.24749 0.34464-0.53798 0.04285-0.29049-0.12315-0.71255-0.17237-0.43466-0.50988-1.1021l-2.6555-5.2511 1.7881-0.90427 2.4262 4.7977q0.48397 0.95703 0.75866 1.6878 0.28091 0.71183 0.32128 1.2607 0.04036 0.54885-0.21005 0.99174-0.25041 0.44289-0.81013 0.86826-0.55972 0.42537-1.479 0.89024zm5.5152-2.5927-2.3079-9.4301 4.5095-1.1036q0.91834-0.22475 1.5169-0.15333 0.61229 0.06807 0.99741 0.39511 0.38176 0.31334 0.61524 0.85183 0.24383 0.52143 0.41156 1.2068 0.11741 0.47973 0.16935 1.0481 0.05194 0.56839-0.12185 1.1049-0.16008 0.53311-0.7095 0.90002l2.4168 3.3455-2.056 0.50317-2.3513-3.4342 0.54346 0.14302q-0.08588 0.0646-0.21959 0.11185-0.12 0.0439-0.28448 0.08415l-2.0286 0.49646 0.84533 3.4541zm0.71524-5.5067 1.7819-0.43608q0.57568-0.14089 0.88786-0.28993 0.31219-0.14904 0.43977-0.34007 0.12422-0.20473 0.10161-0.47522-0.02597-0.2842-0.12996-0.7091t-0.2122-0.68897q-0.10821-0.26407-0.29588-0.37794t-0.54711-0.09854q-0.34573 0.01197-0.92141 0.15286l-1.7956 0.43943zm10.742 3.4729-3.2755-9.6521 2.0599-0.0364 2.5042 7.5346 0.07054-0.0012 2.2082-7.6179 2.0176-0.03565-2.9324 9.7618zm7.1898 0.0952 2.054-9.4887 1.9584 0.42394-0.83893 3.8755 3.7789 0.81803 0.83893-3.8755 1.9584 0.42394-2.054 9.4887-1.9584-0.42394 0.85087-3.9306-3.7789-0.81803-0.85087 3.9306zm13.251 4.1883q-0.92762-0.44794-1.495-0.86298-0.56742-0.41504-0.82591-0.85326t-0.2409-0.99386q0.03029-0.5495 0.2854-1.2725 0.27395-0.72957 0.7403-1.6953l2.3379-4.8414 1.8044 0.87133-2.5588 5.2989q-0.32522 0.67348-0.48959 1.1112-0.14553 0.43117-0.11006 0.71469 0.04817 0.28965 0.35444 0.53157 0.31241 0.22921 0.90965 0.51761 0.59723 0.2884 0.9583 0.3844 0.37991 0.08943 0.63671-0.05295 0.2568-0.14239 0.49128-0.53061 0.24061-0.40093 0.56583-1.0744l2.5588-5.2989 1.8044 0.87133-2.3379 4.8414q-0.46635 0.96574-0.88008 1.6278-0.39489 0.6555-0.8064 1.0209-0.41151 0.36541-0.91544 0.43547-0.50394 0.07006-1.1818-0.11625-0.67787-0.18631-1.6055-0.63425zm5.4109 2.8049 6.0949-7.5568 3.6905 2.9766q0.73591 0.59354 1.02 1.1853 0.30399 0.58962 0.17817 1.1952-0.10598 0.60342-0.61094 1.2295-0.41637 0.51624-0.8515 0.76354t-0.89789 0.23664q-0.46275-0.01066-0.99282-0.27502l-0.03544 0.04393q0.42552 0.50636 0.53605 0.97621 0.13037 0.46772-0.03903 0.94748-0.16054 0.46877-0.60348 1.018-0.36321 0.45034-0.77425 0.7352-0.40218 0.27388-0.86742 0.33373-0.45426 0.06871-0.9868-0.12513-0.53255-0.19385-1.1586-0.6988zm2.5696 0.0058 1.6256 1.3111q0.43935 0.35436 0.75399 0.48122 0.3235 0.11588 0.57969-0.02194 0.27603-0.13994 0.58609-0.52438 0.3012-0.37345 0.37067-0.66187 0.07832-0.2994-0.10343-0.59103-0.17077-0.28276-0.61012-0.63712l-1.6256-1.3111zm2.5691-3.1853 1.5707 1.2668q0.41738 0.33664 0.7299 0.44366 0.3235 0.11588 0.58181-0.0021 0.27816-0.1201 0.54393-0.44962 0.31006-0.38443 0.37066-0.66187 0.0804-0.27956-0.0992-0.55134-0.16865-0.26292-0.62996-0.635l-1.5707-1.2668z" fill="#fff" stroke-width=".06849" style="white-space:pre" aria-label="SURVHUB"/><path d="m67.733 17.992a49.742 49.742 0 0 0-49.742 49.742 49.742 49.742 0 0 0 49.742 49.742 49.742 49.742 0 0 0 49.742-49.742 49.742 49.742 0 0 0-49.742-49.742z" fill="none"/><path d="m19.672 80.771q-0.19861-0.73566-0.29266-1.463l0.5858-0.15815q0.12368 0.75589 0.25609 1.2463 0.08459 0.31334 0.16647 0.48125 0.08371 0.17472 0.19488 0.26164 0.10749 0.0733 0.25108 0.06376 0.15224-0.0046 0.39746-0.07076 0.30652-0.08276 0.41994-0.14992 0.12207-0.06219 0.14897-0.17908 0.03372-0.11873 0.0016-0.37314l-0.12381-0.94587q-0.04978-0.37389 0.05723-0.6001 0.10702-0.22621 0.34066-0.36237 0.23548-0.12935 0.63056-0.23601 0.53812-0.14528 0.877-0.05406 0.34072 0.09803 0.53614 0.38875 0.19726 0.29754 0.33518 0.80841 0.09379 0.3474 0.15168 0.69718 0.0647 0.34794 0.07641 0.60787l-0.57218 0.15448q-0.04699-0.49889-0.21986-1.1392-0.08827-0.32696-0.17198-0.50168-0.08371-0.17472-0.19304-0.25483-0.10932-0.08011-0.24794-0.07922-0.12997 0.0059-0.35475 0.06654-0.26566 0.07172-0.38091 0.13207-0.11342 0.06716-0.144 0.17042-0.02378 0.10142 6e-3 0.31994l0.12749 0.95949q0.04372 0.32437-7e-3 0.54268-0.04387 0.21647-0.26151 0.38485-0.22942 0.17887-0.77436 0.32599-0.5858 0.15815-0.94328 0.07927-0.34882-0.07391-0.54738-0.34918-0.1899-0.27029-0.32599-0.77436zm6.3754 3.6918-2.5629 0.92135q-0.89634 0.32223-1.3438 0.37063-0.44746 0.0484-0.73466-0.20824-0.28056-0.25902-0.53358-0.96282-0.25301-0.70379-0.20398-1.0888 0.05806-0.38076 0.43152-0.63498 0.38249-0.24997 1.2722-0.56982l2.5629-0.92135 0.24585 0.68387-2.7952 1.0049q-0.57764 0.20766-0.79996 0.34007-0.21993 0.13904-0.25082 0.34509-0.02425 0.20366 0.12851 0.62859 0.15038 0.41829 0.29875 0.55989 0.15501 0.13921 0.40411 0.10215 0.25573-0.03945 0.84001-0.2495l2.7952-1.0049zm-3.1099 4.9179 1.4262-1.3757-0.01764-0.03848-0.45283-0.9877-1.6996 0.77921-0.30286-0.66061 4.4126-2.023 0.79098 1.7253q0.23229 0.50668 0.18316 0.83967-0.04914 0.333-0.30247 0.54228-0.24398 0.21276-0.69934 0.42153-0.4682 0.21465-0.84822 0.24917-0.37067 0.03799-0.66708-0.25301l-1.5023 1.4805zm1.9023-1.8268q0.15584 0.33992 0.30338 0.45857 0.15048 0.12506 0.3314 0.09644 0.18386-0.0222 0.49813-0.16628 0.32068-0.14702 0.45403-0.26249 0.13976-0.11841 0.14615-0.30762 0.0064-0.18921-0.14651-0.52272l-0.39108-0.85302-1.5778 0.72335zm-0.71835 4.1064 3.5456-3.6005 0.36609 0.65217-2.9482 2.9495 0.02072 0.03691 4.0499-0.98688 0.35918 0.63986-4.9202 1.1518zm1.548 2.6254 4.0858-2.621 0.39239 0.61168-4.0858 2.621zm1.5654 2.3312 3.1089-3.9837 0.43853 0.60583-2.5901 3.2684 0.02482 0.03429 3.9098-1.4452 0.43025 0.5944-4.7555 1.7089zm3.4407 4.3198 0.69603-1.0758-1.1171-1.3099-1.1676 0.52284-0.47614-0.55832 4.6549-2.0225 0.62723 0.73547-2.732 4.2772zm2.3423-3.5925-0.02289-0.02684-2.1536 0.965 0.88361 1.0361zm-1.3682 4.6438 3.4477-3.4172 0.51158 0.51615-2.9866 2.9602 1.2864 1.2979-0.46102 0.45695zm5.5917 5.0643 0.49151-1.1833-1.3342-1.088-1.0547 0.72403-0.56868-0.46372 4.216-2.8256 0.74912 0.61086-1.9194 4.6984zm1.659-3.9548-0.02734-0.0223-1.9453 1.3361 1.0553 0.86056zm1.6549 6.3077 0.37733-3.9417-0.02334-0.0159-1.9524 2.8702-0.58338-0.39684 2.7303-4.0136 0.63005 0.42858-0.35864 3.8264 0.02334 0.0159 1.8929-2.7827 0.57754 0.39287-2.7303 4.0136zm3.9309 2.3203 0.27987-1.2504-1.502-0.84133-0.9139 0.89523-0.64018-0.3586 3.6649-3.511 0.84332 0.47239-1.0796 4.9592zm0.95145-4.1818-0.03078-0.0172-1.6855 1.6518 1.188 0.66548zm0.32892 4.8256 2.0727-4.3895 0.65714 0.31031-1.7955 3.8025 1.6524 0.78028-0.27716 0.58697zm3.3512 1.4923 0.66277-1.6726-0.24551-3.3834 0.71498 0.28329 0.15097 2.5112 0.04592 0.0182 1.8234-1.7288 0.68218 0.27031-2.4963 2.297-0.66277 1.6726zm3.8306 1.4247q-0.72737-0.22711-1.3916-0.538l0.18085-0.5792q0.70424 0.3012 1.1892 0.4526 0.3098 0.0967 0.49543 0.11774 0.19236 0.0231 0.32535-0.0241 0.11952-0.0514 0.18852-0.17767 0.07784-0.13092 0.15354-0.37337 0.09463-0.30307 0.09881-0.43482 0.01302-0.13637-0.07118-0.22179-0.0821-0.0922-0.31404-0.20154l-0.86462-0.40301q-0.34223-0.1586-0.4757-0.37028t-0.12302-0.4819q0.01719-0.26812 0.13916-0.65874 0.16613-0.53206 0.42492-0.76909 0.26553-0.23492 0.61572-0.24384 0.35692-7e-3 0.86204 0.15089 0.34348 0.10725 0.66971 0.24607 0.32833 0.13208 0.55397 0.26166l-0.17664 0.56573q-0.44621-0.22802-1.0793-0.42569-0.32328-0.10094-0.51563-0.12404-0.19236-0.0231-0.31862 0.0262t-0.19989 0.16673q-0.06479 0.11282-0.13419 0.33507-0.08201 0.26266-0.09292 0.3923-0.0042 0.13174 0.06655 0.21296 0.07283 0.0745 0.2732 0.16661l0.87809 0.40722q0.29719 0.13714 0.45422 0.29704 0.15914 0.15317 0.18446 0.42717 0.02785 0.28957-0.14038 0.82836-0.18085 0.57921-0.43922 0.83854-0.24953 0.25471-0.58835 0.27457-0.32998 0.0152-0.82836-0.14038zm2.3237 0.60413 1.1817-4.7082 0.70486 0.17691-1.1817 4.7082zm3.1562 0.76422q-0.74841-0.14328-1.4436-0.37695l0.1141-0.59595q0.73382 0.21951 1.2328 0.31503 0.31877 0.061 0.50557 0.0609 0.19374 1e-3 0.32053-0.0608 0.11294-0.0646 0.16719-0.19787 0.06251-0.13889 0.11027-0.38835 0.0597-0.31184 0.04893-0.44321-0.0025-0.13697-0.09584-0.21231-0.09201-0.0823-0.33484-0.16468l-0.9047-0.30251q-0.35799-0.11882-0.51458-0.31402-0.15659-0.19521-0.1768-0.46487-0.01328-0.26834 0.06367-0.67027 0.10481-0.54744 0.3351-0.81225 0.23722-0.26349 0.58414-0.31201 0.35385-0.0472 0.87358 0.0523 0.35341 0.0677 0.69327 0.16865 0.34118 0.094 0.58004 0.19725l-0.11144 0.58209q-0.46916-0.17602-1.1206-0.30073-0.33263-0.0637-0.52636-0.0648-0.19374-1e-3 -0.3136 0.0621-0.11987 0.0633-0.17972 0.18829-0.0516 0.11942-0.09538 0.3481-0.05174 0.27026-0.0479 0.4003 0.01077 0.13137 0.09024 0.20406 0.0808 0.0658 0.29031 0.1346l0.91856 0.30516q0.31081 0.10261 0.48494 0.2437 0.17546 0.13417 0.23164 0.40354 0.06046 0.28455-0.04567 0.83893-0.1141 0.59595-0.34144 0.88288-0.21908 0.28132-0.55348 0.33942-0.32613 0.0525-0.83893-0.0457zm4.275-4.2906 1.9202 0.15094q0.64712 0.0509 0.91118 0.38303 0.2711 0.33271 0.2241 0.93059-0.0387 0.49237-0.2437 0.75935-0.20444 0.25994-0.61256 0.31987l-0.0022 0.0281q0.44298 0.12682 0.60319 0.42958 0.16021 0.30277 0.1204 0.80921-0.04755 0.60491-0.36248 0.91987-0.30789 0.3155-1.0324 0.25856l-1.9062-0.14984zm1.525 2.2077q0.3939 0.031 0.57598-0.12458 0.18208-0.15555 0.21249-0.54241 0.02267-0.28839-0.02902-0.44107-0.04411-0.15917-0.20091-0.23519-0.14922-0.0825-0.44464-0.10573l-0.96364-0.0757-0.1139 1.449zm-0.13347 2.1481q0.29542 0.0232 0.4557-0.0349 0.16731-0.0576 0.24333-0.21443 0.08306-0.15625 0.10572-0.44464 0.03428-0.43609-0.11478-0.61059-0.14851-0.18153-0.57054-0.2147l-0.99881-0.0785-0.11943 1.5193zm2.3683 0.75572-0.0014-4.8542 2.794-8e-4 1.78e-4 0.62795-2.0673 5.8e-4 4.15e-4 1.4605 1.7851-5.1e-4 1.78e-4 0.62794-1.7851 5.1e-4 4.29e-4 1.5099 2.0673-5.9e-4 1.78e-4 0.62795zm6.3072-0.24663-2.1829-3.3037-0.02813 2e-3 0.2843 3.4597-0.70318 0.0578-0.39756-4.8379 0.75944-0.0624 2.125 3.2022 0.02813-2e-3 -0.27563-3.3542 0.69615-0.0572 0.39756 4.8379zm4.3576-0.6712q-0.18122 0.0724-0.46221 0.14672-0.27402 0.0732-0.51776 0.11287-0.75907 0.12356-1.146-0.0136-0.38107-0.14528-0.57994-0.62045-0.2-0.48213-0.3723-1.5406-0.17116-1.0516-0.13439-1.5722 0.03677-0.52067 0.35323-0.77234 0.32229-0.25976 1.0814-0.38332 0.2507-0.0408 0.52796-0.0502 0.28309-0.0175 0.46512 3e-3l0.09295 0.57104q-0.435 6e-3 -0.81105 0.0677-0.57104 0.093-0.77575 0.24064-0.20471 0.1477-0.21654 0.5142-0.01183 0.36649 0.1344 1.2648 0.14623 0.89835 0.27368 1.2422 0.12745 0.34383 0.36843 0.41898 0.24098 0.0751 0.81202-0.0178 0.48747-0.0793 0.81154-0.19643zm3.3753-0.74053-0.50631-2.0625-1.8227 0.44744 0.50631 2.0625-0.71262 0.17494-1.1573-4.7142 0.71262-0.17494 0.49622 2.0214 1.8227-0.44743-0.49622-2.0214 0.70577-0.17325 1.1573 4.7142zm5.3151-1.7213-1.2401-3.4904-0.02659 9e-3 0.0899 3.8991-0.53852 0.19132-2.3836-3.0842-0.02659 9e-3 1.2401 3.4904-0.65155 0.23148-1.6251-4.5741 0.97067-0.34486 2.3334 3.0271 0.03989-0.0142-0.09952-3.8208 0.95737-0.34013 1.6251 4.5741zm4.1758-1.8634-0.85427-0.95498-1.558 0.73233 0.19658 1.2641-0.66408 0.31214-0.724-5.0234 0.8748-0.41119 3.4059 3.7628zm-2.8481-3.2064-0.03193 0.015 0.36321 2.3318 1.2324-0.57926zm6.3005 1.2989-1.5026-1.2917-0.03667 0.0212-0.94119 0.54293 0.93426 1.6196-0.6295 0.36312-2.4255-4.2048 1.644-0.94836q0.48282-0.27851 0.81894-0.26063 0.33613 0.0179 0.56811 0.2506 0.23457 0.22308 0.48488 0.657 0.25736 0.44615 0.32715 0.8213 0.07238 0.36552-0.18972 0.68776l1.614 1.3578zm-1.9962-1.7238q0.32392-0.18685 0.42829-0.3448 0.11048-0.16148 0.06513-0.33895-0.03925-0.18099-0.21199-0.48046-0.17628-0.30558-0.30367-0.42758-0.13092-0.12811-0.3199-0.11684-0.18898 0.0113-0.50679 0.1946l-0.81284 0.46889 0.86727 1.5035zm5.5424-0.62658-2.3047-1.0206-0.46964 0.32565 1.2262 1.7684-0.5972 0.4141-2.766-3.9891 0.5972-0.4141 1.182 1.7046 0.46964-0.32565-0.08615-2.4645 0.64359-0.44626 0.08238 2.7934 2.701 1.1836zm1.8791-4.5912q0.22339 0.26386 0.28226 0.39891 0.06426 0.13049-0.01691 0.26393-0.08117 0.13343-0.36118 0.37049-0.27463 0.23251-0.41424 0.28599-0.13961 0.0535-0.2631-0.0269-0.1181-0.0849-0.34149-0.34876-0.23251-0.27463-0.29676-0.40512-0.05887-0.13505 0.01692-0.26392 0.07661-0.13882 0.34586-0.36677 0.28001-0.23706 0.42957-0.28972 0.145-0.0581 0.2631 0.0269 0.12349 0.0803 0.356 0.35497zm3.4536 0.11671-3.4636-3.401 1.9576-1.9936 0.44806 0.43996-1.4484 1.4751 1.0421 1.0233 1.2507-1.2737 0.44806 0.43996-1.2507 1.2737 1.0774 1.0579 1.4484-1.4751 0.44805 0.43995zm3.4966-3.6873q-0.49157 0.58224-1.0359 1.0738l-0.46364-0.39144q0.55088-0.53217 0.87859-0.92033 0.20938-0.24799 0.30076-0.41092 0.0959-0.16832 0.10407-0.3092-9.7e-4 -0.13009-0.0906-0.24269-0.0905-0.12254-0.28454-0.2864-0.24259-0.20482-0.36239-0.2598-0.12064-0.06492-0.23204-0.02046-0.1168 0.0399-0.30761 0.21122l-0.70695 0.64048q-0.27898 0.25387-0.52586 0.29474-0.24689 0.04087-0.49188-0.07362-0.24043-0.11989-0.55312-0.38388-0.42589-0.35958-0.54392-0.69007-0.11348-0.33589 0.0142-0.66209 0.13222-0.3316 0.47359-0.73593 0.23213-0.27495 0.48667-0.52174 0.24914-0.25135 0.45613-0.40902l0.45285 0.38234q-0.3833 0.32276-0.81115 0.82952-0.21848 0.25877-0.31442 0.42709-0.0959 0.16832-0.0995 0.3038-4e-3 0.13549 0.0761 0.24892 0.0788 0.10349 0.25674 0.2537 0.21026 0.17751 0.3255 0.23788 0.1198 0.05497 0.2221 0.0213 0.0969-0.03822 0.25957-0.18714l0.71606-0.65126q0.24172-0.22068 0.45003-0.30336 0.20292-0.08723 0.46527-0.0042 0.27769 0.0867 0.70898 0.45083 0.46363 0.39144 0.60238 0.7302 0.13792 0.32882 0.0247 0.64879-0.11401 0.31003-0.45083 0.70898zm1.957-2.574-3.3914-2.4862-0.74251 1.0129-0.52351-0.38377 1.9189-2.6176 0.52351 0.38377-0.74252 1.0129 3.3914 2.4862zm1.1886-1.6829-0.64081-0.42521 0.42521-0.64082 0.64081 0.42521zm1.465-3.5428 1.0781-1.9677 0.55071 0.30173-1.4171 2.5865-0.51977-0.28478q-0.53214-0.29156-0.76269-0.4581-0.23336-0.17612-0.32305-0.39421-0.0959-0.22148-0.0755-0.59646l0.0624-1.1565q0.0186-0.32769-0.0706-0.47313-0.0859-0.15163-0.37669-0.31097-0.27226-0.14917-0.44289-0.14611-0.16723-0.0031-0.30547 0.1464-0.13485 0.14334-0.3247 0.48985-0.2407 0.43933-0.50208 1.0926l-0.51358-0.28138q0.0827-0.26844 0.24502-0.63809 0.1623-0.36965 0.32503-0.66666 0.22715-0.41458 0.44718-0.63996 0.22003-0.22539 0.55568-0.25066 0.32946-0.02866 0.80592 0.23238 0.36507 0.20002 0.55054 0.39013 0.18885 0.18392 0.24701 0.40082 0.0554 0.20732 0.0407 0.51306l-0.0734 1.2792q-0.0145 0.21733 0.0568 0.33684 0.0539 0.07781 0.1613 0.16078 0.11079 0.07679 0.33355 0.19884zm2.7139-3.8478q-0.32133 0.71421-0.63755 0.93557-0.31622 0.22136-0.79139 0.10815-0.47227-0.11964-1.5018-0.58282-1.0295-0.46318-1.4323-0.73724-0.39991-0.2805-0.44401-0.66397t0.27723-1.0977q0.32422-0.72064 0.63755-0.93557 0.31622-0.22136 0.78849-0.10172 0.46874 0.11031 1.5047 0.57638 1.0295 0.46318 1.4294 0.74368 0.4028 0.27406 0.4469 0.65753t-0.27723 1.0977zm-0.57265-0.25764q0.19106-0.42467 0.17399-0.61029-0.0206-0.19495-0.31562-0.38184-0.30145-0.18978-1.183-0.58638-0.8815-0.3966-1.217-0.4934-0.34198-0.0997-0.4951 0.01709-0.15666 0.10746-0.34773 0.53213-0.19106 0.42467-0.17045 0.61962 0.0171 0.18562 0.31851 0.37541 0.29502 0.18689 1.1765 0.58348 0.8815 0.3966 1.2235 0.4963 0.33555 0.09681 0.49221-0.01065 0.15312-0.11679 0.34419-0.54146zm1.1279-2.8645 0.7574-2.112 0.59108 0.21198-0.99557 2.7761-0.55787-0.20007q-0.57117-0.20483-0.82491-0.33331-0.25801-0.1375-0.38067-0.3389-0.1293-0.20378-0.16773-0.57734l-0.11904-1.152q-0.0328-0.32657-0.14369-0.45629-0.1085-0.13636-0.42065-0.2483-0.29222-0.1048-0.46027-0.07512-0.16567 0.02304-0.27885 0.19233-0.11079 0.16265-0.24417 0.53456-0.16911 0.47154-0.3252 1.1576l-0.55124-0.19768q0.0398-0.27807 0.14231-0.66854 0.10255-0.39047 0.21688-0.70926 0.15957-0.44497 0.34168-0.70197 0.18212-0.257 0.5097-0.33441 0.32094-0.07979 0.83233 0.10361 0.39184 0.14052 0.60473 0.29932 0.21527 0.15216 0.3066 0.35731 0.0871 0.19613 0.12037 0.5004l0.12743 1.275q0.0196 0.21692 0.10873 0.32382 0.0654 0.06843 0.18445 0.13361 0.12143 0.05854 0.36052 0.14428zm2.0961-4.2858q-0.12438 0.45607-0.25495 0.7203-0.12871 0.25743-0.32859 0.40038-0.20668 0.14109-0.53403 0.16152-0.24691 0.02042-0.65099-0.05321-0.40409-0.07363-1.0303-0.24442-0.5854-0.15965-0.96411-0.2995-0.37872-0.13985-0.60644-0.29702-0.42018-0.28279-0.50249-0.67822-0.0872-0.40408 0.10024-1.0916 0.0668-0.24505 0.20049-0.57426 0.12871-0.33787 0.26114-0.60892l0.56498 0.15408q-0.11325 0.25433-0.2172 0.55508-0.11077 0.29889-0.16646 0.5031-0.14294 0.52414-0.0835 0.78899 0.0545 0.25619 0.36077 0.42017 0.30631 0.16398 1.0415 0.36447l0.0111-0.04084q-0.26485-0.34282-0.0495-1.1324 0.13923-0.51052 0.31744-0.76176 0.17327-0.2599 0.49629-0.31807 0.32302-0.05817 0.888 0.09591 0.62624 0.17079 0.91956 0.38242 0.29517 0.20482 0.35087 0.56374 0.0489 0.35706-0.12375 0.9901zm-0.61696-0.12438q0.10396-0.38119 0.10272-0.56436-6e-3 -0.19183-0.1578-0.30631-0.15161-0.11448-0.5328-0.21844-0.40842-0.11138-0.60397-0.09158-0.19369 0.013-0.28774 0.17018-0.10087 0.15532-0.20854 0.55013-0.10581 0.388-0.0879 0.59035 0.013 0.19369 0.1411 0.28713 0.12809 0.09344 0.42079 0.17326 0.44926 0.12252 0.67389 0.10334 0.22463-0.01918 0.3323-0.17265 0.10953-0.16027 0.20792-0.52104z" fill="#fff" stroke-width=".06849" style="white-space:pre" aria-label="SURVIVAL ANALYSIS BENCHMARK  EST. 2026"/></svg>
